<?xml version="1.0" encoding="UTF-8"?>
<svg width="581px" height="115px" viewBox="0 0 581 115" version="1.1" xmlns="http://www.w3.org/2000/svg" xmlns:xlink="http://www.w3.org/1999/xlink">
    <title>AVATAR logo/Red/AVATAR logo_05@1x</title>
    <g id="页面-1" stroke="none" stroke-width="1" fill="none" fill-rule="evenodd">
        <g id="28备份-4" transform="translate(-1443.000000, -977.000000)" fill="#E84142">
            <path d="M1522.71289,1010 C1524.99789,1010 1527.11257,1011.20007 1528.32436,1013.16394 L1528.45525,1013.38527 L1570.64046,1087.95014 C1571.63265,1089.70104 1570.45648,1091.8754 1568.51738,1091.99485 L1568.34933,1092 L1548.36013,1092 C1546.10346,1092 1544.00587,1090.81422 1542.80469,1088.8745 L1542.67011,1088.64737 L1511.19621,1033.01744 C1510.49561,1031.77845 1508.97774,1031.32148 1507.73588,1031.94576 L1507.58216,1032.02945 L1507.43406,1032.12309 C1506.28169,1032.90578 1505.91057,1034.47847 1506.61395,1035.72031 C1506.61395,1035.72031 1513.84811,1048.50718 1521.42046,1061.89127 L1522.2185,1063.3018 L1522.88687,1064.48313 L1522.88687,1064.48313 L1523.55469,1065.66349 C1528.55866,1074.50791 1533.42793,1083.11397 1536.17471,1087.96794 C1537.1669,1089.71596 1535.97974,1091.87622 1534.04003,1091.99489 L1533.87196,1092 L1510.82986,1092 C1508.54486,1092 1506.42748,1090.79993 1505.21811,1088.83606 L1505.08751,1088.61473 L1492.80905,1066.91758 C1491.81943,1065.17122 1489.39448,1065.1183 1488.32053,1066.75882 L1488.22389,1066.91758 L1475.94252,1088.6266 C1474.80579,1090.63796 1472.73889,1091.90374 1470.47657,1091.99474 L1470.21471,1092 L1445.64907,1092 C1443.67034,1092 1442.41165,1089.87427 1443.27841,1088.1012 L1443.35794,1087.95014 L1485.55188,1013.3734 C1486.68861,1011.3649 1488.75551,1010.09648 1491.01783,1010.00527 L1491.27969,1010 L1522.71289,1010 Z M1965.53491,1074.2 L1965.53491,1083.656 L1965.53802,1083.92937 C1965.61677,1087.34712 1967.19173,1089.056 1970.26291,1089.056 C1971.79891,1089.056 1972.97491,1088.612 1973.79091,1087.724 C1974.60691,1086.836 1975.01491,1085.48 1975.01491,1083.656 L1975.01491,1083.656 L1975.01491,1074.2 L1977.34291,1074.2 L1977.34291,1083.752 L1977.33823,1084.11011 C1977.27895,1086.35097 1976.65651,1088.0756 1975.47091,1089.284 C1974.22291,1090.556 1972.47891,1091.192 1970.23891,1091.192 C1967.99891,1091.192 1966.25491,1090.552 1965.00691,1089.272 C1963.75891,1087.992 1963.13491,1086.152 1963.13491,1083.752 L1963.13491,1083.752 L1963.13491,1074.2 L1965.53491,1074.2 Z M1867.10437,1074.008 C1868.09637,1074.008 1869.07237,1074.136 1870.03237,1074.392 C1870.99237,1074.648 1871.81637,1075.016 1872.50437,1075.496 L1872.50437,1075.496 L1871.71237,1077.416 L1871.40771,1077.23061 C1870.79253,1076.87306 1870.14208,1076.59486 1869.45637,1076.396 C1868.65637,1076.164 1867.87237,1076.048 1867.10437,1076.048 C1865.74437,1076.048 1864.72437,1076.296 1864.04437,1076.792 C1863.36437,1077.288 1863.02437,1077.928 1863.02437,1078.712 C1863.02437,1079.288 1863.21637,1079.756 1863.60037,1080.116 C1863.98437,1080.476 1864.46037,1080.756 1865.02837,1080.956 C1865.59637,1081.156 1866.36837,1081.368 1867.34437,1081.592 C1868.60837,1081.896 1869.62437,1082.2 1870.39237,1082.504 C1871.16037,1082.808 1871.82037,1083.272 1872.37237,1083.896 C1872.92437,1084.52 1873.20037,1085.36 1873.20037,1086.416 C1873.20037,1087.296 1872.96037,1088.1 1872.48037,1088.828 C1872.00037,1089.556 1871.27237,1090.132 1870.29637,1090.556 C1869.32037,1090.98 1868.12037,1091.192 1866.69637,1091.192 C1865.43237,1091.192 1864.21237,1090.996 1863.03637,1090.604 C1861.86037,1090.212 1860.93637,1089.704 1860.26437,1089.08 L1860.26437,1089.08 L1861.15237,1087.208 L1861.37237,1087.396 C1861.97681,1087.88667 1862.72348,1088.292 1863.61237,1088.612 C1864.61237,1088.972 1865.64037,1089.152 1866.69637,1089.152 C1868.08837,1089.152 1869.12837,1088.916 1869.81637,1088.444 C1870.50437,1087.972 1870.84837,1087.344 1870.84837,1086.56 C1870.84837,1085.984 1870.66037,1085.516 1870.28437,1085.156 C1869.90837,1084.796 1869.44437,1084.52 1868.89237,1084.328 C1868.34037,1084.136 1867.56037,1083.92 1866.55237,1083.68 C1865.28837,1083.376 1864.26837,1083.072 1863.49237,1082.768 C1862.71637,1082.464 1862.05237,1081.996 1861.50037,1081.364 C1860.94837,1080.732 1860.67237,1079.88 1860.67237,1078.808 C1860.67237,1077.912 1860.90837,1077.104 1861.38037,1076.384 C1861.85237,1075.664 1862.56837,1075.088 1863.52837,1074.656 C1864.48837,1074.224 1865.68037,1074.008 1867.10437,1074.008 Z M1809.5,1074.008 C1810.492,1074.008 1811.468,1074.136 1812.428,1074.392 C1813.388,1074.648 1814.212,1075.016 1814.9,1075.496 L1814.9,1075.496 L1814.108,1077.416 L1813.80335,1077.23061 C1813.18816,1076.87306 1812.53772,1076.59486 1811.852,1076.396 C1811.052,1076.164 1810.268,1076.048 1809.5,1076.048 C1808.14,1076.048 1807.12,1076.296 1806.44,1076.792 C1805.76,1077.288 1805.42,1077.928 1805.42,1078.712 C1805.42,1079.288 1805.612,1079.756 1805.996,1080.116 C1806.38,1080.476 1806.856,1080.756 1807.424,1080.956 C1807.992,1081.156 1808.764,1081.368 1809.74,1081.592 C1811.004,1081.896 1812.02,1082.2 1812.788,1082.504 C1813.556,1082.808 1814.216,1083.272 1814.768,1083.896 C1815.32,1084.52 1815.596,1085.36 1815.596,1086.416 C1815.596,1087.296 1815.356,1088.1 1814.876,1088.828 C1814.396,1089.556 1813.668,1090.132 1812.692,1090.556 C1811.716,1090.98 1810.516,1091.192 1809.092,1091.192 C1807.828,1091.192 1806.608,1090.996 1805.432,1090.604 C1804.256,1090.212 1803.332,1089.704 1802.66,1089.08 L1802.66,1089.08 L1803.548,1087.208 L1803.768,1087.396 C1804.37245,1087.88667 1805.11911,1088.292 1806.008,1088.612 C1807.008,1088.972 1808.036,1089.152 1809.092,1089.152 C1810.484,1089.152 1811.524,1088.916 1812.212,1088.444 C1812.9,1087.972 1813.244,1087.344 1813.244,1086.56 C1813.244,1085.984 1813.056,1085.516 1812.68,1085.156 C1812.304,1084.796 1811.84,1084.52 1811.288,1084.328 C1810.736,1084.136 1809.956,1083.92 1808.948,1083.68 C1807.684,1083.376 1806.664,1083.072 1805.888,1082.768 C1805.112,1082.464 1804.448,1081.996 1803.896,1081.364 C1803.344,1080.732 1803.068,1079.88 1803.068,1078.808 C1803.068,1077.912 1803.304,1077.104 1803.776,1076.384 C1804.248,1075.664 1804.964,1075.088 1805.924,1074.656 C1806.884,1074.224 1808.076,1074.008 1809.5,1074.008 Z M1720.74255,1074.008 C1722.05455,1074.008 1723.25455,1074.228 1724.34255,1074.668 C1725.43055,1075.108 1726.35855,1075.76 1727.12655,1076.624 L1727.12655,1076.624 L1725.56655,1078.136 L1725.35299,1077.92081 C1724.12647,1076.73627 1722.62166,1076.144 1720.83855,1076.144 C1719.59055,1076.144 1718.46255,1076.424 1717.45455,1076.984 C1716.44655,1077.544 1715.65855,1078.316 1715.09055,1079.3 C1714.52255,1080.284 1714.23855,1081.384 1714.23855,1082.6 C1714.23855,1083.816 1714.52255,1084.916 1715.09055,1085.9 C1715.65855,1086.884 1716.44655,1087.656 1717.45455,1088.216 C1718.46255,1088.776 1719.59055,1089.056 1720.83855,1089.056 C1722.71055,1089.056 1724.28655,1088.384 1725.56655,1087.04 L1725.56655,1087.04 L1727.12655,1088.552 L1726.89123,1088.80496 C1726.17051,1089.54512 1725.31695,1090.1168 1724.33055,1090.52 C1723.23455,1090.968 1722.03055,1091.192 1720.71855,1091.192 C1719.03855,1091.192 1717.52255,1090.82 1716.17055,1090.076 C1714.81855,1089.332 1713.75855,1088.308 1712.99055,1087.004 C1712.22255,1085.7 1711.83855,1084.232 1711.83855,1082.6 C1711.83855,1080.968 1712.22255,1079.5 1712.99055,1078.196 C1713.75855,1076.892 1714.82255,1075.868 1716.18255,1075.124 C1717.54255,1074.38 1719.06255,1074.008 1720.74255,1074.008 Z M1655.79527,1074.2 L1655.79527,1088.912 L1664.89127,1088.912 L1664.89127,1091 L1653.39527,1091 L1653.39527,1074.2 L1655.79527,1074.2 Z M1692.87746,1074.2 L1702.95746,1086.728 L1702.95746,1074.2 L1705.35746,1074.2 L1705.35746,1091 L1703.38946,1091 L1693.30946,1078.472 L1693.30946,1091 L1690.90946,1091 L1690.90946,1074.2 L1692.87746,1074.2 Z M1922.25964,1074.2 L1922.63882,1074.2054 C1924.63544,1074.26298 1926.22105,1074.78118 1927.39564,1075.76 C1928.64364,1076.8 1929.26764,1078.232 1929.26764,1080.056 C1929.26764,1081.352 1928.94764,1082.456 1928.30764,1083.368 C1927.66764,1084.28 1926.75564,1084.944 1925.57164,1085.36 L1925.57164,1085.36 L1929.55564,1091 L1926.93964,1091 L1923.31564,1085.84 L1923.09964,1085.85467 C1922.75297,1085.87689 1922.47297,1085.888 1922.25964,1085.888 L1922.25964,1085.888 L1918.10764,1085.888 L1918.10764,1091 L1915.70764,1091 L1915.70764,1074.2 L1922.25964,1074.2 Z M1735.76764,1074.2 L1735.76764,1081.424 L1745.41564,1081.424 L1745.41564,1074.2 L1747.81564,1074.2 L1747.81564,1091 L1745.41564,1091 L1745.41564,1083.512 L1735.76764,1083.512 L1735.76764,1091 L1733.36764,1091 L1733.36764,1074.2 L1735.76764,1074.2 Z M1767.52073,1074.2 L1767.52073,1076.288 L1758.06473,1076.288 L1758.06473,1081.448 L1766.48873,1081.448 L1766.48873,1083.488 L1758.06473,1083.488 L1758.06473,1088.912 L1767.85673,1088.912 L1767.85673,1091 L1755.66473,1091 L1755.66473,1074.2 L1767.52073,1074.2 Z M2014.44909,1074.2 L2014.85539,1074.20625 C2016.46637,1074.25624 2017.90694,1074.60615 2019.17709,1075.256 C2020.55309,1075.96 2021.62109,1076.948 2022.38109,1078.22 C2023.14109,1079.492 2023.52109,1080.952 2023.52109,1082.6 C2023.52109,1084.248 2023.14109,1085.708 2022.38109,1086.98 C2021.62109,1088.252 2020.55309,1089.24 2019.17709,1089.944 C2017.80109,1090.648 2016.22509,1091 2014.44909,1091 L2014.44909,1091 L2007.36909,1091 L2007.36909,1074.2 L2014.44909,1074.2 Z M1957.08582,1074.2 L1957.08582,1076.288 L1947.62982,1076.288 L1947.62982,1082.144 L1956.05382,1082.144 L1956.05382,1084.208 L1947.62982,1084.208 L1947.62982,1091 L1945.22982,1091 L1945.22982,1074.2 L1957.08582,1074.2 Z M1890.74546,1074.2 L1890.74546,1076.288 L1884.98546,1076.288 L1884.98546,1091 L1882.60946,1091 L1882.60946,1076.288 L1876.84946,1076.288 L1876.84946,1074.2 L1890.74546,1074.2 Z M1839.59818,1074.2 L1847.23018,1091 L1844.71018,1091 L1842.86218,1086.8 L1833.93418,1086.8 L1832.08618,1091 L1829.61418,1091 L1837.22218,1074.2 L1839.59818,1074.2 Z M1601.96,1074.2 L1609.592,1091 L1607.072,1091 L1605.224,1086.8 L1596.296,1086.8 L1594.448,1091 L1591.976,1091 L1599.584,1074.2 L1601.96,1074.2 Z M1824.30909,1074.2 L1824.30909,1091 L1821.90909,1091 L1821.90909,1074.2 L1824.30909,1074.2 Z M1902.77055,1074.2 L1910.40255,1091 L1907.88255,1091 L1906.03455,1086.8 L1897.10655,1086.8 L1895.25855,1091 L1892.78655,1091 L1900.39455,1074.2 L1902.77055,1074.2 Z M1791.25891,1074.2 L1798.89091,1091 L1796.37091,1091 L1794.52291,1086.8 L1785.59491,1086.8 L1783.74691,1091 L1781.27491,1091 L1788.88291,1074.2 L1791.25891,1074.2 Z M1614.05709,1074.2 L1620.10509,1088 L1626.20109,1074.2 L1628.60109,1074.2 L1621.23309,1091 L1618.85709,1091 L1611.46509,1074.2 L1614.05709,1074.2 Z M1640.45818,1074.2 L1648.09018,1091 L1645.57018,1091 L1643.72218,1086.8 L1634.79418,1086.8 L1632.94618,1091 L1630.47418,1091 L1638.08218,1074.2 L1640.45818,1074.2 Z M1677.97236,1074.2 L1685.60436,1091 L1683.08436,1091 L1681.23636,1086.8 L1672.30836,1086.8 L1670.46036,1091 L1667.98836,1091 L1675.59636,1074.2 L1677.97236,1074.2 Z M1987.04,1074.2 L1997.12,1086.728 L1997.12,1074.2 L1999.52,1074.2 L1999.52,1091 L1997.552,1091 L1987.472,1078.472 L1987.472,1091 L1985.072,1091 L1985.072,1074.2 L1987.04,1074.2 Z M2014.30509,1076.288 L2009.76909,1076.288 L2009.76909,1088.912 L2014.30509,1088.912 C2015.66509,1088.912 2016.86109,1088.648 2017.89309,1088.12 C2018.92509,1087.592 2019.72109,1086.852 2020.28109,1085.9 C2020.84109,1084.948 2021.12109,1083.848 2021.12109,1082.6 C2021.12109,1081.352 2020.84109,1080.252 2020.28109,1079.3 C2019.72109,1078.348 2018.92509,1077.608 2017.89309,1077.08 C2016.86109,1076.552 2015.66509,1076.288 2014.30509,1076.288 L2014.30509,1076.288 Z M1838.39818,1076.648 L1834.77418,1084.88 L1842.02218,1084.88 L1838.39818,1076.648 Z M1901.57055,1076.648 L1897.94655,1084.88 L1905.19455,1084.88 L1901.57055,1076.648 Z M1790.05891,1076.648 L1786.43491,1084.88 L1793.68291,1084.88 L1790.05891,1076.648 Z M1676.77236,1076.648 L1673.14836,1084.88 L1680.39636,1084.88 L1676.77236,1076.648 Z M1639.25818,1076.648 L1635.63418,1084.88 L1642.88218,1084.88 L1639.25818,1076.648 Z M1600.76,1076.648 L1597.136,1084.88 L1604.384,1084.88 L1600.76,1076.648 Z M1922.18764,1076.288 L1918.10764,1076.288 L1918.10764,1083.848 L1922.18764,1083.848 C1923.70764,1083.848 1924.86764,1083.52 1925.66764,1082.864 C1926.46764,1082.208 1926.86764,1081.272 1926.86764,1080.056 C1926.86764,1078.84 1926.46764,1077.908 1925.66764,1077.26 C1924.86764,1076.612 1923.70764,1076.288 1922.18764,1076.288 L1922.18764,1076.288 Z M1791.38751,981.471349 L1825.17226,1057.69334 L1806.82954,1057.69235 L1803.21054,1048.87835 L1800.13053,1041.36005 L1800.12354,1041.35935 L1782.64449,998.784629 L1765.16454,1041.35935 L1765.05052,1041.36005 L1758.35833,1057.69334 L1740.44054,1057.69334 L1774.11735,981.471349 L1791.38751,981.471349 Z M1643.17596,981.471349 L1676.96071,1057.69334 L1658.618,1057.69235 L1654.944,1048.74435 L1651.91898,1041.36005 L1651.912,1041.35935 L1634.43295,998.784629 L1616.952,1041.35935 L1616.83897,1041.36005 L1610.14679,1057.69334 L1592.229,1057.69334 L1625.90581,981.471349 L1643.17596,981.471349 Z M1686.8031,981.471349 L1709.794,1035.91563 L1733.10872,981.471349 L1750.48682,981.471349 L1717.78145,1057.69334 L1700.51129,1057.69334 L1667.91387,981.471349 L1686.8031,981.471349 Z M1985.16109,981.471349 L1985.87474,981.475655 C1992.2672,981.553155 1997.84001,982.676901 2002.59316,984.846894 C2007.52235,987.097258 2011.31819,990.291322 2013.98067,994.429087 C2016.64315,998.566852 2017.97439,1003.46684 2017.97439,1009.12904 C2017.97439,1014.79125 2016.62516,1019.67308 2013.9267,1023.77455 C2011.32129,1027.73459 2007.65934,1030.79797 2002.94085,1032.96469 L2002.43125,1033.19341 L2019.37759,1057.69334 L2000.5963,1057.69334 L1986.0246,1036.46007 L1986.0176,1036.46007 L1976.41707,1022.41345 L1984.18964,1022.41345 C1989.2732,1022.41345 1993.17741,1021.32569 1995.90226,1019.15019 L1996.17082,1018.92901 C1998.90526,1016.60606 2000.27248,1013.3394 2000.27248,1009.12904 C2000.27248,1004.84609 1998.90526,1001.56129 1996.17082,999.274628 C1993.52458,997.061732 1989.699,995.919591 1984.69407,995.848208 L1984.18964,995.844638 L1959.45174,995.844638 L1952.45573,981.471349 L1985.16109,981.471349 Z M1931.77951,981.471349 L1965.56426,1057.69334 L1947.22154,1057.69235 L1943.42954,1048.45535 L1940.52253,1041.36005 L1940.51554,1041.35935 L1923.03649,998.784629 L1905.55554,1041.35935 L1905.44252,1041.36005 L1898.75033,1057.69334 L1880.83254,1057.69334 L1914.50935,981.471349 L1931.77951,981.471349 Z M1893.3654,981.471349 L1887.36882,995.844638 L1862.19116,995.844638 L1862.19116,1057.69334 L1844.70513,1057.69334 L1844.70513,995.844638 L1819.52747,995.844638 L1813.53089,981.471349 L1893.3654,981.471349 Z M1509.83775,978.261831 L1509.94081,978.429901 L1522.618,1000.70734 C1523.67481,1002.56658 1522.41638,1004.8749 1520.34558,1004.9951 L1520.17593,1005 L1494.82446,1005 C1492.70801,1005 1491.36884,1002.74061 1492.30174,1000.85902 L1492.38239,1000.70734 L1505.05666,978.429901 C1506.11197,976.58114 1508.69266,976.525117 1509.83775,978.261831 Z" id="AVATAR-logo/Red/AVATAR-logo_05"></path>
        </g>
    </g>
</svg>